<?xml version="1.0" encoding="UTF-8" standalone="no"?><!DOCTYPE svg PUBLIC "-//W3C//DTD SVG 1.1//EN" "http://www.w3.org/Graphics/SVG/1.1/DTD/svg11.dtd"><svg width="100%" height="100%" viewBox="0 0 2250 2250" version="1.1" xmlns="http://www.w3.org/2000/svg" xmlns:xlink="http://www.w3.org/1999/xlink" xml:space="preserve" xmlns:serif="http://www.serif.com/" style="fill-rule:evenodd;clip-rule:evenodd;stroke-linecap:round;stroke-linejoin:round;stroke-miterlimit:1.5;"><rect id="Analytics" x="0" y="0" width="2250" height="2250" style="fill:none;"/><g id="Graph"><path d="M1902.45,214.739c0,-62.467 -50.715,-113.182 -113.182,-113.182c-62.467,0 -113.182,50.715 -113.182,113.182l-0,1820.52c-0,62.467 50.715,113.182 113.182,113.182c62.467,-0 113.182,-50.715 113.182,-113.182l0,-1820.52Z" style="fill:#11142d;stroke:#11142d;stroke-width:66.37px;"/><path d="M1230.72,862.612c0,-62.467 -50.715,-113.182 -113.182,-113.182c-62.467,0 -113.182,50.715 -113.182,113.182l-0,1172.65c-0,62.467 50.715,113.182 113.182,113.182c62.467,-0 113.182,-50.715 113.182,-113.182l0,-1172.65Z" style="fill:#11142d;stroke:#11142d;stroke-width:66.37px;"/><path d="M573.911,1407.72c0,-62.467 -50.715,-113.182 -113.182,-113.182c-62.467,-0 -113.182,50.715 -113.182,113.182l-0,627.542c-0,62.467 50.715,113.182 113.182,113.182c62.467,-0 113.182,-50.715 113.182,-113.182l0,-627.542Z" style="fill:#11142d;stroke:#11142d;stroke-width:66.37px;"/></g></svg>