<?xml version="1.0" encoding="UTF-8" standalone="no"?><!DOCTYPE svg PUBLIC "-//W3C//DTD SVG 1.1//EN" "http://www.w3.org/Graphics/SVG/1.1/DTD/svg11.dtd"><svg width="100%" height="100%" viewBox="0 0 2250 2250" version="1.1" xmlns="http://www.w3.org/2000/svg" xmlns:xlink="http://www.w3.org/1999/xlink" xml:space="preserve" xmlns:serif="http://www.serif.com/" style="fill-rule:evenodd;clip-rule:evenodd;stroke-linecap:round;stroke-linejoin:round;stroke-miterlimit:1.5;"><rect id="Bathroom" x="0" y="0" width="2250" height="2250" style="fill:none;"/><g id="Shower"><path d="M1157.77,490.446c-165.57,1.256 -298.47,194.074 -281.632,299.099c380.551,10.73 589.349,0 589.349,0c-0,0 -44.46,-301.097 -307.717,-299.099Z" style="fill:none;stroke:#9d9d9d;stroke-width:199.07px;"/><path d="M414.762,1364.84l0,-874.393c0,-0 67.007,-273.743 319.932,-276.152c353.609,-3.367 376.56,195.327 376.56,195.327" style="fill:none;stroke:#9d9d9d;stroke-width:199.07px;"/><path d="M126.35,1364.84l2012.73,-0" style="fill:none;stroke:#9d9d9d;stroke-width:199.07px;"/><path d="M271.056,1449.31c-0,0 -72.353,435.151 861.658,435.151c1039.25,-0 907.702,-519.626 907.702,-519.626" style="fill:none;stroke:#9d9d9d;stroke-width:199.07px;"/><path d="M455.227,1798.96l-185.473,236.791" style="fill:none;stroke:#9d9d9d;stroke-width:199.07px;"/><path d="M1860.31,1798.96l185.473,236.791" style="fill:none;stroke:#9d9d9d;stroke-width:199.07px;"/></g></svg>