<?xml version="1.0" encoding="UTF-8" standalone="no"?><!DOCTYPE svg PUBLIC "-//W3C//DTD SVG 1.1//EN" "http://www.w3.org/Graphics/SVG/1.1/DTD/svg11.dtd"><svg width="100%" height="100%" viewBox="0 0 2250 2250" version="1.1" xmlns="http://www.w3.org/2000/svg" xmlns:xlink="http://www.w3.org/1999/xlink" xml:space="preserve" xmlns:serif="http://www.serif.com/" style="fill-rule:evenodd;clip-rule:evenodd;stroke-linecap:round;stroke-linejoin:round;stroke-miterlimit:1.5;"><rect id="Bedroom" x="0" y="0" width="2250" height="2250" style="fill:none;"/><g id="Bed"><path d="M599.012,962.05c-0,0 -19.721,-266.456 214.106,-269.273c233.826,-2.817 191.568,269.273 191.568,269.273l-405.674,0Z" style="fill:none;stroke:#9d9d9d;stroke-width:150.37px;"/><path d="M1289.22,962.05c-0,0 -19.721,-266.456 214.106,-269.273c233.826,-2.817 191.568,269.273 191.568,269.273l-405.674,0Z" style="fill:none;stroke:#9d9d9d;stroke-width:150.37px;"/><path d="M162.095,1993.71l0,-770.324" style="fill:none;stroke:#9d9d9d;stroke-width:150.37px;"/><path d="M2087.91,1993.71l-0,-770.324" style="fill:none;stroke:#9d9d9d;stroke-width:150.37px;"/><path d="M162.095,1791.66l1925.81,0" style="fill:none;stroke:#9d9d9d;stroke-width:150.37px;"/><path d="M162.095,1363.45l1925.81,0" style="fill:none;stroke:#9d9d9d;stroke-width:150.37px;"/><path d="M348.029,256.295l1553.94,-0" style="fill:none;stroke:#9d9d9d;stroke-width:150.37px;"/><path d="M348.029,962.05l0,-705.755" style="fill:none;stroke:#9d9d9d;stroke-width:150.37px;"/><path d="M1945.37,962.05l-0,-705.755" style="fill:none;stroke:#9d9d9d;stroke-width:150.37px;"/><path d="M162.095,1223.38l259.096,-261.331l1433.95,0l232.767,261.331" style="fill:none;stroke:#9d9d9d;stroke-width:150.37px;"/></g></svg>