<?xml version="1.0" encoding="UTF-8" standalone="no"?><!DOCTYPE svg PUBLIC "-//W3C//DTD SVG 1.1//EN" "http://www.w3.org/Graphics/SVG/1.1/DTD/svg11.dtd"><svg width="100%" height="100%" viewBox="0 0 1555 1610" version="1.1" xmlns="http://www.w3.org/2000/svg" xmlns:xlink="http://www.w3.org/1999/xlink" xml:space="preserve" xmlns:serif="http://www.serif.com/" style="fill-rule:evenodd;clip-rule:evenodd;stroke-linejoin:round;stroke-miterlimit:2;"><rect id="Bills-Included" serif:id="Bills Included" x="0" y="0" width="1554.16" height="1609.97" style="fill:none;"/><g><circle cx="777.456" cy="804.987" r="755.951" style="fill:#4f94fb;"/><path d="M777.456,310.076c67.227,311.257 -336.137,372.765 -336.137,622.514c0,185.519 150.618,336.137 336.137,336.137c185.518,-0 336.136,-150.618 336.136,-336.137c0,-249.749 -168.068,-479.325 -336.136,-622.514Z" style="fill:#fff;"/><path d="M867.47,746.173c-9.121,185.688 -245.888,159.424 -283.626,300.267c-28.034,104.621 34.146,212.319 138.767,240.352c104.621,28.034 212.32,-34.146 240.353,-138.767c37.738,-140.843 -22.351,-295.706 -95.494,-401.852Z" style="fill:#4f94fb;"/></g></svg>