<?xml version="1.0" encoding="UTF-8" standalone="no"?><!DOCTYPE svg PUBLIC "-//W3C//DTD SVG 1.1//EN" "http://www.w3.org/Graphics/SVG/1.1/DTD/svg11.dtd"><svg width="100%" height="100%" viewBox="0 0 1555 1610" version="1.1" xmlns="http://www.w3.org/2000/svg" xmlns:xlink="http://www.w3.org/1999/xlink" xml:space="preserve" xmlns:serif="http://www.serif.com/" style="fill-rule:evenodd;clip-rule:evenodd;stroke-linejoin:round;stroke-miterlimit:2;"><rect id="Furnished-icon" serif:id="Furnished icon" x="0" y="0" width="1554.16" height="1609.97" style="fill:none;"/><g><path d="M652.863,1568.97c-108.832,-40.434 -170.305,-158.458 -138.414,-272.221c45.23,-161.347 316.956,-128.033 329.895,-341.29c82.646,122.942 149.647,301.694 104.416,463.04c-26.226,93.556 -107.892,156.752 -199.476,163.998c9.235,0.464 18.488,0.698 27.795,0.698c301.197,-0 545.731,-244.535 545.731,-545.732c0,-405.479 -272.866,-778.205 -545.731,-1010.68c109.146,505.339 -545.732,605.199 -545.732,1010.68c-0,258.487 180.101,475.242 421.516,531.507Z" style="fill:#11142d;"/></g></svg>