<?xml version="1.0" encoding="UTF-8" standalone="no"?><!DOCTYPE svg PUBLIC "-//W3C//DTD SVG 1.1//EN" "http://www.w3.org/Graphics/SVG/1.1/DTD/svg11.dtd"><svg width="100%" height="100%" viewBox="0 0 2073 1234" version="1.1" xmlns="http://www.w3.org/2000/svg" xmlns:xlink="http://www.w3.org/1999/xlink" xml:space="preserve" xmlns:serif="http://www.serif.com/" style="fill-rule:evenodd;clip-rule:evenodd;stroke-linejoin:round;stroke-miterlimit:2;"><rect id="Public" x="0" y="0" width="2072.21" height="1233.01" style="fill:none;"/><g><path d="M403.593,1159.24l1248.55,-0c-0,-0 318.695,9.496 325.79,-324.187c4.112,-193.363 -133.248,-283.5 -211.667,-317.717c-24.818,-10.829 -73.538,-9.352 -73.538,-9.352c-0,0 17.268,-124.938 -155.085,-240.012c-77.665,-51.854 -186.05,-59.818 -263.643,-34.93c-33.507,10.748 -75.853,39.796 -75.853,39.796c-0,-0 -95.347,-222.554 -384.683,-214.135c-258.753,7.529 -404.53,186.251 -433.594,373.824c-2.755,17.781 -1.257,74.458 -1.257,74.458c-0,0 -53.007,2.796 -83.499,18.299c-49.824,25.333 -206.077,99.982 -200.804,306.573c8.303,325.263 297.982,326.376 297.982,326.376l11.298,1.007Z" style="fill:#11142d;fill-opacity:0.69;"/></g></svg>