<?xml version="1.0" encoding="UTF-8" standalone="no"?><!DOCTYPE svg PUBLIC "-//W3C//DTD SVG 1.1//EN" "http://www.w3.org/Graphics/SVG/1.1/DTD/svg11.dtd"><svg width="100%" height="100%" viewBox="0 0 2250 2250" version="1.1" xmlns="http://www.w3.org/2000/svg" xmlns:xlink="http://www.w3.org/1999/xlink" xml:space="preserve" xmlns:serif="http://www.serif.com/" style="fill-rule:evenodd;clip-rule:evenodd;stroke-linejoin:round;stroke-miterlimit:2;"><rect id="Facebook" x="0" y="0" width="2250" height="2250" style="fill:none;"/><path d="M1694.38,66.444l4.422,342.554c-0,0 -302.908,-29.341 -357.118,92.288c-46.547,104.437 -34.22,366.274 -34.22,366.274l371.289,-0l-59.885,383.15l-309.693,1.711l-5.133,946.19c-0,-0 -138.179,6.063 -207.269,5.496c-69.581,-0.57 -210.218,-8.918 -210.218,-8.918l1.711,-939.346l-337.07,-0l0,-388.283l337.07,-0l-1.711,-345.742c-0,0 11.977,-272.45 169.39,-379.189c157.413,-106.738 366.548,-96.509 366.548,-96.509l271.887,20.324Z" style="fill:#11142d;"/></svg>