<?xml version="1.0" encoding="UTF-8" standalone="no"?><!DOCTYPE svg PUBLIC "-//W3C//DTD SVG 1.1//EN" "http://www.w3.org/Graphics/SVG/1.1/DTD/svg11.dtd"><svg width="100%" height="100%" viewBox="0 0 1555 1610" version="1.1" xmlns="http://www.w3.org/2000/svg" xmlns:xlink="http://www.w3.org/1999/xlink" xml:space="preserve" xmlns:serif="http://www.serif.com/" style="fill-rule:evenodd;clip-rule:evenodd;stroke-linejoin:round;stroke-miterlimit:2;"><rect id="file" x="0" y="0" width="1554.16" height="1609.97" style="fill:none;"/><path id="Attach" d="M1247.55,888.847l-519.014,519.015c-123.22,123.219 -347.607,96.729 -470.826,-26.49l-3.734,-3.734c-123.22,-123.22 -123.22,-321.117 -0,-444.337l694.508,-694.508c123.22,-123.22 294.98,-145.623 388.328,-52.275l3.734,3.734c93.348,93.348 70.944,268.842 -52.275,388.327l-579.78,579.78c-85.88,85.88 -203.69,133.434 -267.166,66.223l-3.734,-3.734c-63.477,-63.476 -3.463,-165.092 82.417,-250.972l404.286,-404.286l-52.275,-52.274l-404.286,404.285c-115.751,115.752 -179.499,262.174 -82.417,355.522l3.734,3.734c93.348,93.348 255.964,49.528 371.716,-66.223l579.78,-579.78c149.356,-149.357 175.494,-373.392 52.275,-496.611l-3.734,-3.734c-123.22,-123.219 -343.521,-100.816 -496.611,52.275l-694.509,694.509c-153.091,153.09 -153.091,395.795 -0,548.886l3.734,3.734c153.09,153.09 422.285,179.58 575.376,26.489l519.014,-519.014l-48.541,-48.541Z" style="fill:#b7b7b7;fill-rule:nonzero;stroke:#b7b7b7;stroke-width:35.45px;"/></svg>