<?xml version="1.0" encoding="UTF-8" standalone="no"?><!DOCTYPE svg PUBLIC "-//W3C//DTD SVG 1.1//EN" "http://www.w3.org/Graphics/SVG/1.1/DTD/svg11.dtd"><svg width="100%" height="100%" viewBox="0 0 1555 1610" version="1.1" xmlns="http://www.w3.org/2000/svg" xmlns:xlink="http://www.w3.org/1999/xlink" xml:space="preserve" xmlns:serif="http://www.serif.com/" style="fill-rule:evenodd;clip-rule:evenodd;stroke-linejoin:round;stroke-miterlimit:2;"><rect id="Furnished-icon" serif:id="Furnished icon" x="0" y="0" width="1554.16" height="1609.97" style="fill:none;"/><g><g><path d="M1092.95,1218.83l-631.735,-0l-0,111.383c-0,0 -3.252,23.171 -45.529,23.171c-42.277,0 -53.253,-26.017 -53.253,-26.017l-2.032,-109.35c-0,-0 -32.928,-0 -73.172,-1.22c-40.244,-1.22 -60.163,-50.814 -57.724,-69.92c2.439,-19.106 19.919,-129.676 23.577,-174.392c3.659,-44.716 4.382,-92.458 -13.595,-129.044c-20.471,-41.661 -62.479,-33.63 -62.479,-33.63c-0,0 -115.919,21.437 -115.919,-76.22c0,-75.796 56.588,-89.12 99.246,-89.12c53.576,0 108.943,37.973 155.522,113.664c46.579,75.691 44.675,246.077 44.675,246.077c0,-0 -0.433,16.26 8.239,33.604c8.672,17.345 32.52,13.729 32.52,13.729l751.583,-0c-0,-0 23.848,3.616 32.52,-13.729c8.673,-17.344 8.239,-33.604 8.239,-33.604c0,-0 -1.904,-170.386 44.675,-246.077c46.579,-75.691 101.946,-113.664 155.522,-113.664c42.658,0 99.246,13.324 99.246,89.12c-0,97.657 -115.919,76.22 -115.919,76.22c0,0 -42.008,-8.031 -62.479,33.63c-17.976,36.586 -17.254,84.328 -13.595,129.044c3.658,44.716 21.138,155.286 23.577,174.392c2.439,19.106 -17.48,68.7 -57.724,69.92c-40.244,1.22 -73.172,1.22 -73.172,1.22l-2.032,109.35c-0,0 -10.976,26.017 -53.253,26.017c-42.277,0 -45.529,-23.171 -45.529,-23.171l0,-111.383Z" style="fill:#11142d;"/><path d="M264.947,565.115c0,0 125.397,-294.56 503.721,-294.56c394.996,0 520.542,286.373 520.542,286.373c-0,-0 -177.848,57.521 -181.818,386.222c-489.081,3.97 -676.457,-0 -676.457,-0c0,-0 -6.404,-127.375 -35.241,-208.216c-42.748,-119.835 -130.747,-169.819 -130.747,-169.819Z" style="fill:#11142d;"/></g></g></svg>