<?xml version="1.0" encoding="UTF-8" standalone="no"?><!DOCTYPE svg PUBLIC "-//W3C//DTD SVG 1.1//EN" "http://www.w3.org/Graphics/SVG/1.1/DTD/svg11.dtd"><svg width="100%" height="100%" viewBox="0 0 1555 1610" version="1.1" xmlns="http://www.w3.org/2000/svg" xmlns:xlink="http://www.w3.org/1999/xlink" xml:space="preserve" xmlns:serif="http://www.serif.com/" style="fill-rule:evenodd;clip-rule:evenodd;stroke-linejoin:round;stroke-miterlimit:2;"><rect id="Furnished" x="0" y="0" width="1554.16" height="1609.97" style="fill:none;"/><g><circle cx="777.079" cy="825.453" r="742.185" style="fill:#4f94fb;"/><g><path d="M1008.92,1110.6l-463.687,0l0,81.754c0,0 -2.387,17.008 -33.418,17.008c-31.03,-0 -39.086,-19.096 -39.086,-19.096l-1.492,-80.263c-0,0 -24.169,0 -53.707,-0.895c-29.539,-0.895 -44.16,-37.296 -42.369,-51.32c1.79,-14.023 14.62,-95.181 17.305,-128.002c2.686,-32.821 3.216,-67.863 -9.979,-94.717c-15.025,-30.579 -45.859,-24.684 -45.859,-24.684c0,0 -85.083,15.735 -85.083,-55.945c0,-55.633 41.535,-65.412 72.845,-65.412c39.325,-0 79.963,27.871 114.152,83.428c34.189,55.556 32.791,180.617 32.791,180.617c0,0 -0.318,11.935 6.047,24.666c6.365,12.73 23.87,10.076 23.87,10.076l551.653,-0c0,-0 17.505,2.654 23.87,-10.076c6.365,-12.731 6.047,-24.666 6.047,-24.666c-0,0 -1.397,-125.061 32.791,-180.617c34.189,-55.557 74.827,-83.428 114.152,-83.428c31.31,-0 72.845,9.779 72.845,65.412c-0,71.68 -85.083,55.945 -85.083,55.945c-0,0 -30.834,-5.895 -45.859,24.684c-13.195,26.854 -12.664,61.896 -9.979,94.717c2.685,32.821 15.515,113.979 17.306,128.002c1.79,14.024 -12.83,50.425 -42.369,51.32c-29.539,0.895 -53.708,0.895 -53.708,0.895l-1.491,80.263c-0,-0 -8.057,19.096 -39.087,19.096c-31.031,-0 -33.418,-17.008 -33.418,-17.008l-0,-81.754Z" style="fill:#fff;"/><path d="M401.18,630.782c0,-0 92.04,-216.204 369.725,-216.204c289.923,-0 382.072,210.194 382.072,210.194c0,-0 -130.538,42.22 -133.452,283.483c-358.98,2.913 -496.512,-0 -496.512,-0c0,-0 -4.7,-93.492 -25.867,-152.828c-31.376,-87.958 -95.966,-124.645 -95.966,-124.645Z" style="fill:#fff;"/></g></g></svg>