<?xml version="1.0" encoding="UTF-8" standalone="no"?><!DOCTYPE svg PUBLIC "-//W3C//DTD SVG 1.1//EN" "http://www.w3.org/Graphics/SVG/1.1/DTD/svg11.dtd"><svg width="100%" height="100%" viewBox="0 0 1555 1156" version="1.1" xmlns="http://www.w3.org/2000/svg" xmlns:xlink="http://www.w3.org/1999/xlink" xml:space="preserve" xmlns:serif="http://www.serif.com/" style="fill-rule:evenodd;clip-rule:evenodd;stroke-linejoin:round;stroke-miterlimit:2;"><rect id="Garde" x="0" y="0" width="1554.16" height="1155.62" style="fill:none;"/><g id="Tea"><path d="M729.518,1046.74c-58.979,37.617 -187.921,89.585 -366.226,-9.266c-249.307,-138.214 -299.264,-497.47 -299.264,-497.47c0,0 247.033,-61.132 416.97,9.61c-18.355,325.316 160.243,453.792 248.52,497.126Z" style="fill:#11142d;"/><path d="M1107.94,551.036c170.025,-72.982 420.344,-11.037 420.344,-11.037c0,0 -49.956,359.256 -299.264,497.47c-174.764,96.888 -302.107,48.887 -362.636,11.518c78.66,-33.776 222.648,-129.537 244.252,-382.039c3.371,-39.399 2.144,-78.139 -2.696,-115.912Z" style="fill:#11142d;"/><path d="M754.856,989.091c-84.802,-45.617 -247.743,-178.419 -203.755,-513.617c27.48,-209.411 244.9,-414.318 244.9,-414.318c-0,0 290.614,270.11 264.492,587.368c-18.525,224.978 -140.258,312.598 -209.494,344.53l0,-420.914c0,-27.57 -21.54,-49.953 -48.072,-49.953c-26.531,-0 -48.071,22.383 -48.071,49.953l-0,416.951Z" style="fill:#11142d;"/></g></svg>