<?xml version="1.0" encoding="UTF-8" standalone="no"?><!DOCTYPE svg PUBLIC "-//W3C//DTD SVG 1.1//EN" "http://www.w3.org/Graphics/SVG/1.1/DTD/svg11.dtd"><svg width="100%" height="100%" viewBox="0 0 1555 1610" version="1.1" xmlns="http://www.w3.org/2000/svg" xmlns:xlink="http://www.w3.org/1999/xlink" xml:space="preserve" xmlns:serif="http://www.serif.com/" style="fill-rule:evenodd;clip-rule:evenodd;stroke-linecap:round;stroke-linejoin:round;stroke-miterlimit:1.5;"><rect id="Garden" x="0" y="0" width="1554.16" height="1609.97" style="fill:none;"/><g><g><circle cx="777.079" cy="822.583" r="742.185" style="fill:#4f94fb;"/></g><g id="Tea"><path d="M767.631,1181.13l-267.261,-179.551" style="fill:none;stroke:#4f94fb;stroke-width:22.58px;"/><path d="M786.526,1181.13l267.261,-179.551" style="fill:none;stroke:#4f94fb;stroke-width:22.58px;"/><path d="M200.133,793.517c0,0 40.421,290.683 242.142,402.515c201.72,111.831 325.356,-14.905 325.356,-14.905c0,0 78.385,-229.063 -215.588,-373.263c-137.445,-67.419 -351.91,-14.347 -351.91,-14.347Z" style="fill:#fff;stroke:#4f94fb;stroke-width:22.58px;"/><path d="M1354.02,793.517c-0,0 -40.421,290.683 -242.141,402.515c-201.721,111.831 -325.357,-14.905 -325.357,-14.905c-0,0 -78.385,-229.063 215.588,-373.263c137.446,-67.419 351.91,-14.347 351.91,-14.347Z" style="fill:#fff;stroke:#4f94fb;stroke-width:22.58px;"/><path d="M770.974,395.296c0,-0 254.653,227.77 231.763,495.298c-22.89,267.529 -225.624,304.725 -225.624,304.725c0,0 -272.237,-72.962 -220.734,-450.649c24.08,-176.586 214.595,-349.374 214.595,-349.374Z" style="fill:#fff;stroke:#4f94fb;stroke-width:50px;"/><path d="M777.113,1195.32l0,-374.826" style="fill:none;stroke:#4f94fb;stroke-width:50px;"/></g></g></svg>