<?xml version="1.0" encoding="UTF-8" standalone="no"?><!DOCTYPE svg PUBLIC "-//W3C//DTD SVG 1.1//EN" "http://www.w3.org/Graphics/SVG/1.1/DTD/svg11.dtd"><svg width="100%" height="100%" viewBox="0 0 1555 1156" version="1.1" xmlns="http://www.w3.org/2000/svg" xmlns:xlink="http://www.w3.org/1999/xlink" xml:space="preserve" xmlns:serif="http://www.serif.com/" style="fill-rule:evenodd;clip-rule:evenodd;stroke-linejoin:round;stroke-miterlimit:2;"><rect id="Gym" x="0" y="0" width="1554.16" height="1155.62" style="fill:none;"/><g><path d="M630.228,267.51c26.225,-30.137 23.049,-75.896 -7.088,-102.121c-30.137,-26.226 -75.896,-23.049 -102.122,7.088l-237.435,272.855c-26.225,30.137 -23.049,75.896 7.088,102.121c30.138,26.225 75.897,23.049 102.122,-7.088l237.435,-272.855Z" style="fill:#11142d;"/><path d="M1029.85,615.252c26.225,-30.137 71.984,-33.314 102.121,-7.089c30.138,26.226 33.314,71.985 7.089,102.122l-237.436,272.855c-26.225,30.137 -71.984,33.313 -102.121,7.088c-30.137,-26.225 -33.313,-71.984 -7.088,-102.121l237.435,-272.855Z" style="fill:#11142d;"/><path d="M443.233,210.92c17.991,-20.675 15.812,-52.068 -4.863,-70.059c-20.675,-17.992 -52.068,-15.813 -70.059,4.863l-132.322,152.061c-17.992,20.675 -15.813,52.068 4.863,70.059c20.675,17.992 52.067,15.813 70.059,-4.863l132.322,-152.061Z" style="fill:#11142d;"/><path d="M1111.73,792.636c17.991,-20.676 49.384,-22.855 70.059,-4.863c20.675,17.991 22.854,49.384 4.863,70.059l-132.322,152.061c-17.991,20.676 -49.384,22.855 -70.059,4.863c-20.676,-17.991 -22.855,-49.384 -4.863,-70.059l132.322,-152.061Z" style="fill:#11142d;"/><path d="M915.521,691.427c5.258,-6.043 4.622,-15.219 -1.422,-20.477l-318.905,-277.508c-6.044,-5.259 -15.219,-4.622 -20.478,1.421l-63.461,72.928c-5.259,6.043 -4.622,15.219 1.422,20.477l318.905,277.508c6.043,5.259 15.219,4.622 20.478,-1.421l63.461,-72.928Z" style="fill:#11142d;"/></g></svg>