<?xml version="1.0" encoding="UTF-8" standalone="no"?><!DOCTYPE svg PUBLIC "-//W3C//DTD SVG 1.1//EN" "http://www.w3.org/Graphics/SVG/1.1/DTD/svg11.dtd"><svg width="100%" height="100%" viewBox="0 0 1555 1610" version="1.1" xmlns="http://www.w3.org/2000/svg" xmlns:xlink="http://www.w3.org/1999/xlink" xml:space="preserve" xmlns:serif="http://www.serif.com/" style="fill-rule:evenodd;clip-rule:evenodd;stroke-linejoin:round;stroke-miterlimit:2;"><rect id="Gym" x="0" y="0" width="1554.16" height="1609.97" style="fill:none;"/><g><circle cx="777.079" cy="804.987" r="718.923" style="fill:#4f94fb;"/><g><path d="M516.06,624.138c-0,-39.95 -32.435,-72.385 -72.385,-72.385c-39.95,0 -72.384,32.435 -72.384,72.385l-0,361.698c-0,39.95 32.434,72.384 72.384,72.384c39.95,0 72.385,-32.434 72.385,-72.384l-0,-361.698Z" style="fill:#fff;"/><path d="M1045.79,624.138c-0,-39.95 32.434,-72.385 72.384,-72.385c39.95,0 72.384,32.435 72.384,72.385l0,361.698c0,39.95 -32.434,72.384 -72.384,72.384c-39.95,0 -72.384,-32.434 -72.384,-72.384l-0,-361.698Z" style="fill:#fff;"/><path d="M337.847,704.2c0,-27.407 -22.251,-49.658 -49.658,-49.658c-27.408,-0 -49.659,22.251 -49.659,49.658l0,201.573c0,27.408 22.251,49.659 49.659,49.659c27.407,-0 49.658,-22.251 49.658,-49.659l0,-201.573Z" style="fill:#fff;"/><path d="M1224.01,704.2c0,-27.407 22.251,-49.658 49.658,-49.658c27.408,-0 49.659,22.251 49.659,49.658l-0,201.573c-0,27.408 -22.251,49.659 -49.659,49.659c-27.407,-0 -49.658,-22.251 -49.658,-49.659l0,-201.573Z" style="fill:#fff;"/><path d="M1009.56,756.65c0,-8.011 -6.503,-14.515 -14.514,-14.515l-422.743,0c-8.011,0 -14.515,6.504 -14.515,14.515l0,96.673c0,8.011 6.504,14.515 14.515,14.515l422.743,0c8.011,0 14.514,-6.504 14.514,-14.515l0,-96.673Z" style="fill:#fff;"/></g></g></svg>