<?xml version="1.0" encoding="UTF-8" standalone="no"?><!DOCTYPE svg PUBLIC "-//W3C//DTD SVG 1.1//EN" "http://www.w3.org/Graphics/SVG/1.1/DTD/svg11.dtd"><svg width="100%" height="100%" viewBox="0 0 2250 2250" version="1.1" xmlns="http://www.w3.org/2000/svg" xmlns:xlink="http://www.w3.org/1999/xlink" xml:space="preserve" xmlns:serif="http://www.serif.com/" style="fill-rule:evenodd;clip-rule:evenodd;stroke-linejoin:round;stroke-miterlimit:2;"><rect id="Instagram" x="0" y="0" width="2250" height="2250" style="fill:none;"/><g><path d="M2175.05,599.977c0,-289.768 -235.255,-525.023 -525.023,-525.023l-1050.05,-0c-289.768,-0 -525.023,235.255 -525.023,525.023l-0,1050.05c-0,289.768 235.255,525.023 525.023,525.023l1050.05,0c289.768,0 525.023,-235.255 525.023,-525.023l0,-1050.05Zm-205.263,102.631c0,-233.124 -189.267,-422.391 -422.391,-422.391l-844.784,-0c-233.124,-0 -422.391,189.267 -422.391,422.391l-0,844.784c-0,233.124 189.267,422.391 422.391,422.391l844.784,0c233.124,0 422.391,-189.267 422.391,-422.391l0,-844.784Z" style="fill:#303143;"/><circle cx="1674.78" cy="585.172" r="131.368" style="fill:#303143;"/><path d="M1125,575.224c303.43,-0 549.776,246.346 549.776,549.776c0,303.43 -246.346,549.776 -549.776,549.776c-303.43,0 -549.776,-246.346 -549.776,-549.776c-0,-303.43 246.346,-549.776 549.776,-549.776Zm-0,207.315c189.009,-0 342.461,153.452 342.461,342.461c0,189.009 -153.452,342.461 -342.461,342.461c-189.009,0 -342.461,-153.452 -342.461,-342.461c-0,-189.009 153.452,-342.461 342.461,-342.461Z" style="fill:#303143;"/></g></svg>