<?xml version="1.0" encoding="UTF-8" standalone="no"?><!DOCTYPE svg PUBLIC "-//W3C//DTD SVG 1.1//EN" "http://www.w3.org/Graphics/SVG/1.1/DTD/svg11.dtd"><svg width="100%" height="100%" viewBox="0 0 2250 1145" version="1.1" xmlns="http://www.w3.org/2000/svg" xmlns:xlink="http://www.w3.org/1999/xlink" xml:space="preserve" xmlns:serif="http://www.serif.com/" style="fill-rule:evenodd;clip-rule:evenodd;stroke-linecap:round;stroke-linejoin:round;stroke-miterlimit:1.5;"><rect id="Line-plot" serif:id="Line plot" x="0" y="0" width="2250" height="1144.99" style="fill:none;"/><g><path d="M234.462,778.885l144.493,-238.323l253.667,-31.403l235.276,-141.601l187.35,4.357l191.706,54.462l267.954,-8.714l254.882,-56.64l182.993,17.428l230.341,-246.169l0,906.32l-1948.66,-0l0,-259.717Z" style="fill:#e4f3ff;stroke:#3490dc;stroke-width:4.59px;"/><text x="43.901px" y="177.831px" style="font-family:'Rubik-Light', 'Rubik';font-weight:300;font-size:55.12px;fill:#939393;stroke:#939393;stroke-width:0.92px;stroke-linecap:butt;stroke-miterlimit:2;">2<tspan x="76.174px 88.737px 124.237px 159.738px " y="177.831px 177.831px 177.831px 177.831px ">,000</tspan></text><text x="40.308px" y="417.151px" style="font-family:'Rubik-Light', 'Rubik';font-weight:300;font-size:55.12px;fill:#939393;stroke:#939393;stroke-width:0.92px;stroke-linecap:butt;stroke-miterlimit:2;">1<tspan x="63.245px 76.904px 109.868px 145.368px " y="417.151px 417.151px 417.151px 417.151px ">,500</tspan></text><text x="40.789px" y="656.471px" style="font-family:'Rubik-Light', 'Rubik';font-weight:300;font-size:55.12px;fill:#939393;stroke:#939393;stroke-width:0.92px;stroke-linecap:butt;stroke-miterlimit:2;">1<tspan x="63.726px 76.289px 111.789px 147.289px " y="656.471px 656.471px 656.471px 656.471px ">,000</tspan></text><text x="91.273px" y="895.791px" style="font-family:'Rubik-Light', 'Rubik';font-weight:300;font-size:55.12px;fill:#939393;stroke:#939393;stroke-width:0.92px;stroke-linecap:butt;stroke-miterlimit:2;">5<tspan x="124.237px 159.738px " y="895.791px 895.791px ">00</tspan></text><text x="376.113px" y="1100.02px" style="font-family:'Rubik-Light', 'Rubik';font-weight:300;font-size:55.12px;fill:#939393;stroke:#939393;stroke-width:0.92px;stroke-linecap:butt;stroke-miterlimit:2;">5</text><text x="680.463px" y="1100.02px" style="font-family:'Rubik-Light', 'Rubik';font-weight:300;font-size:55.12px;fill:#939393;stroke:#939393;stroke-width:0.92px;stroke-linecap:butt;stroke-miterlimit:2;">1<tspan x="703.4px " y="1100.02px ">0</tspan></text><text x="1008.82px" y="1100.02px" style="font-family:'Rubik-Light', 'Rubik';font-weight:300;font-size:55.12px;fill:#939393;stroke:#939393;stroke-width:0.92px;stroke-linecap:butt;stroke-miterlimit:2;">1<tspan x="1031.75px " y="1100.02px ">5</tspan></text><text x="1708.46px" y="1100.02px" style="font-family:'Rubik-Light', 'Rubik';font-weight:300;font-size:55.12px;fill:#939393;stroke:#939393;stroke-width:0.92px;stroke-linecap:butt;stroke-miterlimit:2;">2<tspan x="1740.73px " y="1100.02px ">5</tspan></text><text x="1364.33px" y="1100.02px" style="font-family:'Rubik-Light', 'Rubik';font-weight:300;font-size:55.12px;fill:#939393;stroke:#939393;stroke-width:0.92px;stroke-linecap:butt;stroke-miterlimit:2;">2<tspan x="1396.61px " y="1100.02px ">0</tspan></text><text x="2041.01px" y="1100.02px" style="font-family:'Rubik-Light', 'Rubik';font-weight:300;font-size:55.12px;fill:#939393;stroke:#939393;stroke-width:0.92px;stroke-linecap:butt;stroke-miterlimit:2;">3<tspan x="2074.2px " y="1100.02px ">0</tspan></text><path d="M234.462,44.255l0,994.347l1948.66,-0" style="fill:none;stroke:#bcbcbc;stroke-width:4.59px;"/></g></svg>