<?xml version="1.0" encoding="UTF-8" standalone="no"?><!DOCTYPE svg PUBLIC "-//W3C//DTD SVG 1.1//EN" "http://www.w3.org/Graphics/SVG/1.1/DTD/svg11.dtd"><svg width="100%" height="100%" viewBox="0 0 5440 3168" version="1.1" xmlns="http://www.w3.org/2000/svg" xmlns:xlink="http://www.w3.org/1999/xlink" xml:space="preserve" xmlns:serif="http://www.serif.com/" style="fill-rule:evenodd;clip-rule:evenodd;stroke-linejoin:round;stroke-miterlimit:2;"><rect id="linechart" x="0" y="0" width="5439.17" height="3167.09" style="fill:none;"/><g><text x="274.973px" y="1004.39px" style="font-family:'Rubik-Light', 'Rubik';font-weight:300;font-size:115.304px;fill:#939393;stroke:#939393;stroke-width:1.92px;">2<tspan x="342.483px 368.764px 443.026px 517.287px " y="1004.39px 1004.39px 1004.39px 1004.39px ">,000</tspan></text><text x="267.458px" y="1505.01px" style="font-family:'Rubik-Light', 'Rubik';font-weight:300;font-size:115.304px;fill:#939393;stroke:#939393;stroke-width:1.92px;">1<tspan x="315.439px 344.011px 412.968px 487.229px " y="1505.01px 1505.01px 1505.01px 1505.01px ">,500</tspan></text><text x="268.463px" y="2005.63px" style="font-family:'Rubik-Light', 'Rubik';font-weight:300;font-size:115.304px;fill:#939393;stroke:#939393;stroke-width:1.92px;">1<tspan x="316.444px 342.725px 416.986px 491.248px " y="2005.63px 2005.63px 2005.63px 2005.63px ">,000</tspan></text><text x="374.069px" y="2506.26px" style="font-family:'Rubik-Light', 'Rubik';font-weight:300;font-size:115.304px;fill:#939393;stroke:#939393;stroke-width:1.92px;">5<tspan x="443.026px 517.287px " y="2506.26px 2506.26px ">00</tspan></text><text x="728.123px" y="2933.49px" style="font-family:'Rubik-Light', 'Rubik';font-weight:300;font-size:115.304px;fill:#939393;stroke:#939393;stroke-width:1.92px;">J<tspan x="802.023px 866.641px " y="2933.49px 2933.49px ">an</tspan></text><text x="1123.26px" y="2933.49px" style="font-family:'Rubik-Light', 'Rubik';font-weight:300;font-size:115.304px;fill:#939393;stroke:#939393;stroke-width:1.92px;">F<tspan x="1190.53px 1256.35px " y="2933.49px 2933.49px ">eb</tspan></text><text x="1525.26px" y="2933.49px" style="font-family:'Rubik-Light', 'Rubik';font-weight:300;font-size:115.304px;fill:#939393;stroke:#939393;stroke-width:1.92px;">M<tspan x="1619.29px 1683.91px " y="2933.49px 2933.49px ">ar</tspan></text><text x="1958.6px" y="2933.49px" style="font-family:'Rubik-Light', 'Rubik';font-weight:300;font-size:115.304px;fill:#939393;stroke:#939393;stroke-width:1.92px;">A<tspan x="2036.96px 2107px " y="2933.49px 2933.49px ">pr</tspan></text><text x="2350.41px" y="2933.49px" style="font-family:'Rubik-Light', 'Rubik';font-weight:300;font-size:115.304px;fill:#939393;stroke:#939393;stroke-width:1.92px;">M<tspan x="2444.44px 2507.97px " y="2933.49px 2933.49px ">ay</tspan></text><text x="2757.81px" y="2933.49px" style="font-family:'Rubik-Light', 'Rubik';font-weight:300;font-size:115.304px;fill:#939393;stroke:#939393;stroke-width:1.92px;">J<tspan x="2831.71px 2902.23px " y="2933.49px 2933.49px ">un</tspan></text><text x="3135.88px" y="2933.49px" style="font-family:'Rubik-Light', 'Rubik';font-weight:300;font-size:115.304px;fill:#939393;stroke:#939393;stroke-width:1.92px;">J<tspan x="3209.78px 3280.31px " y="2933.49px 2933.49px ">ul</tspan></text><text x="3477.26px" y="2933.49px" style="font-family:'Rubik-Light', 'Rubik';font-weight:300;font-size:115.304px;fill:#939393;stroke:#939393;stroke-width:1.92px;">A<tspan x="3554.77px 3625.3px " y="2933.49px 2933.49px ">ug</tspan></text><text x="3845.29px" y="2933.49px" style="font-family:'Rubik-Light', 'Rubik';font-weight:300;font-size:115.304px;fill:#939393;stroke:#939393;stroke-width:1.92px;">S<tspan x="3918.23px 3984.05px " y="2933.49px 2933.49px ">ep</tspan></text><text x="4231.22px" y="2933.49px" style="font-family:'Rubik-Light', 'Rubik';font-weight:300;font-size:115.304px;fill:#939393;stroke:#939393;stroke-width:1.92px;">O<tspan x="4311.02px 4375.64px " y="2933.49px 2933.49px ">ct</tspan></text><text x="4591.25px" y="2933.49px" style="font-family:'Rubik-Light', 'Rubik';font-weight:300;font-size:115.304px;fill:#939393;stroke:#939393;stroke-width:1.92px;">N<tspan x="4673.71px 4738.81px " y="2933.49px 2933.49px ">ov</tspan></text><text x="4913.75px" y="2933.49px" style="font-family:'Rubik-Light', 'Rubik';font-weight:300;font-size:115.304px;fill:#939393;stroke:#939393;stroke-width:1.92px;">D<tspan x="4995.37px 5061.19px " y="2933.49px 2933.49px ">ec</tspan></text><path d="M673.601,724.966l-0,2080.03l4497.85,0" style="fill:none;stroke:#bcbcbc;stroke-width:9.61px;stroke-linecap:round;stroke-miterlimit:1.5;"/></g><path d="M673.601,2453.08l479.81,-97.061l426.374,-277.316l402.109,3.466l502.637,-24.265l391.709,-17.332l294.649,-204.521l291.182,114.393l389.007,-519.968l388.094,-166.39l363.409,419.441l322.503,-637.828" style="fill:none;stroke:#3493f8;stroke-width:27.78px;stroke-linecap:round;stroke-miterlimit:1.5;"/><path d="M673.601,2591.43l887.047,-264.317l459.305,-506.969l411.642,38.997l550.3,-94.162l203.654,-181.437l281.649,-0l281.65,-287.7l186.322,-355.311l392.55,-73.662l597.364,-141.906" style="fill:none;stroke:#f8bf34;stroke-width:27.78px;stroke-linecap:round;stroke-miterlimit:1.5;"/><circle cx="1189.49" cy="343.575" r="84.062" style="fill:#f8bf34;"/><circle cx="3283.23" cy="343.575" r="84.062" style="fill:#3493f8;"/><text x="1362.1px" y="407.553px" style="font-family:'Rubik-Light', 'Rubik';font-weight:300;font-size:182.794px;fill:#939393;stroke:#939393;stroke-width:1.06px;">A<tspan x="1485.23px 1596.08px 1695.23px 1799.58px 1866.09px 1934.7px 1977.32px 2071.35px 2175.7px 2343.5px 2447.85px 2559.15px 2627.76px " y="407.553px 407.553px 407.553px 407.553px 407.553px 407.553px 407.553px 407.553px 407.553px 407.553px 407.553px 407.553px 407.553px ">dvertisements</tspan></text><text x="3441.9px" y="407.553px" style="font-family:'Rubik-Light', 'Rubik';font-weight:300;font-size:182.794px;fill:#939393;stroke:#939393;stroke-width:1.06px;">A<tspan x="3565.03px 3667.47px 3736.08px 3778.7px 3877.85px 3982.2px 4031.51px 4143.32px 4237.35px 4341.69px 4408.2px " y="407.553px 407.553px 407.553px 407.553px 407.553px 407.553px 407.553px 407.553px 407.553px 407.553px 407.553px ">ctive users</tspan></text></svg>