<?xml version="1.0" encoding="UTF-8" standalone="no"?><!DOCTYPE svg PUBLIC "-//W3C//DTD SVG 1.1//EN" "http://www.w3.org/Graphics/SVG/1.1/DTD/svg11.dtd"><svg width="100%" height="100%" viewBox="0 0 3000 2177" version="1.1" xmlns="http://www.w3.org/2000/svg" xmlns:xlink="http://www.w3.org/1999/xlink" xml:space="preserve" xmlns:serif="http://www.serif.com/" style="fill-rule:evenodd;clip-rule:evenodd;stroke-linejoin:round;stroke-miterlimit:2;"><rect id="listing" x="0" y="0" width="3000" height="2176.28" style="fill:none;"/><path id="Bed" d="M215.825,783.297c50.305,0.003 91.125,40.826 91.125,91.124l-0,90.943l2386.1,-0l0,-90.943c0,-50.298 40.729,-91.121 91.125,-91.124l1.549,-0c50.305,0.003 91.125,40.826 91.125,91.124l-0,1096.69c-0,50.301 -40.824,91.125 -91.125,91.125l-4.374,0c-50.301,0 -91.125,-40.824 -91.125,-91.125l0,-188.354l-2380.54,-0l0,188.354c0,50.301 -40.732,91.125 -91.124,91.125l-4.283,0c-50.301,0 -91.125,-40.824 -91.125,-91.125l0,-1096.69c0,-50.298 40.82,-91.121 91.125,-91.124l1.549,-0Zm366.75,-0l-186.05,-0l0,-622.929c0,-33.443 27.72,-60.507 61.765,-60.507l2109.03,0c34.136,0 61.765,27.064 61.765,60.507l-0,622.929l-186.05,-0l0,-91.125c0,-50.299 -41.668,-91.122 -93.02,-91.125l-651.159,0c-51.351,0.003 -93.029,40.826 -93.029,91.125l0,91.125l-186.04,-0l-0,-91.125c-0,-50.299 -41.678,-91.122 -93.029,-91.125l-651.159,0c-51.352,0.003 -93.02,40.826 -93.02,91.125l-0,91.125Z" style="fill:#11142d;"/></svg>