<?xml version="1.0" encoding="UTF-8" standalone="no"?><!DOCTYPE svg PUBLIC "-//W3C//DTD SVG 1.1//EN" "http://www.w3.org/Graphics/SVG/1.1/DTD/svg11.dtd"><svg width="100%" height="100%" viewBox="0 0 2250 2250" version="1.1" xmlns="http://www.w3.org/2000/svg" xmlns:xlink="http://www.w3.org/1999/xlink" xml:space="preserve" xmlns:serif="http://www.serif.com/" style="fill-rule:evenodd;clip-rule:evenodd;stroke-linejoin:round;stroke-miterlimit:2;"><rect id="Messages" x="0" y="0" width="2250" height="2250" style="fill:none;"/><circle cx="217.158" cy="515.735" r="147.584" style="fill:#11142d;"/><circle cx="217.158" cy="1125" r="147.584" style="fill:#11142d;"/><circle cx="217.158" cy="1734.27" r="147.584" style="fill:#11142d;"/><path d="M2180.43,515.735c0,-81.453 -66.13,-147.583 -147.583,-147.583l-1300.3,-0c-81.454,-0 -147.583,66.13 -147.583,147.583c-0,81.454 66.129,147.584 147.583,147.584l1300.3,-0c81.453,-0 147.583,-66.13 147.583,-147.584Z" style="fill:#11142d;"/><path d="M2180.43,1125c0,-81.454 -66.13,-147.584 -147.583,-147.584l-1300.3,0c-81.454,0 -147.583,66.13 -147.583,147.584c-0,81.454 66.129,147.584 147.583,147.584l1300.3,-0c81.453,-0 147.583,-66.13 147.583,-147.584Z" style="fill:#11142d;"/><path d="M2180.43,1734.27c0,-81.454 -66.13,-147.584 -147.583,-147.584l-1300.3,0c-81.454,0 -147.583,66.13 -147.583,147.584c-0,81.453 66.129,147.583 147.583,147.583l1300.3,0c81.453,0 147.583,-66.13 147.583,-147.583Z" style="fill:#11142d;"/></svg>