<?xml version="1.0" encoding="UTF-8" standalone="no"?><!DOCTYPE svg PUBLIC "-//W3C//DTD SVG 1.1//EN" "http://www.w3.org/Graphics/SVG/1.1/DTD/svg11.dtd"><svg width="100%" height="100%" viewBox="0 0 2250 2250" version="1.1" xmlns="http://www.w3.org/2000/svg" xmlns:xlink="http://www.w3.org/1999/xlink" xml:space="preserve" xmlns:serif="http://www.serif.com/" style="fill-rule:evenodd;clip-rule:evenodd;stroke-linecap:round;stroke-linejoin:round;stroke-miterlimit:1.5;"><rect id="Notifications" x="0" y="0" width="2250" height="2250" style="fill:none;"/><g id="Bell"><g><path d="M297.244,1732.55l1673.71,0c-0,0 -98.254,-98.253 -155.851,-206.672c-57.598,-108.418 -176.18,-575.972 -166.016,-718.271c10.165,-142.299 -225.079,-433.673 -532.66,-433.673c-307.581,0 -510.865,287.986 -531.194,369.3c-20.328,81.314 -105.03,630.181 -135.523,758.927c-21.653,91.425 -152.463,230.389 -152.463,230.389Z" style="fill:#fff;stroke:#fff;stroke-width:176.93px;"/><path d="M1116.42,126.606l0,247.329" style="fill:none;stroke:#fff;stroke-width:176.93px;"/></g><path d="M884.592,1922.62l499.012,-0.91c-0,0 -6.659,300.664 -240.71,300.664c-254.059,-0 -258.302,-299.754 -258.302,-299.754Z" style="fill:#fff;"/></g></svg>