<?xml version="1.0" encoding="UTF-8" standalone="no"?><!DOCTYPE svg PUBLIC "-//W3C//DTD SVG 1.1//EN" "http://www.w3.org/Graphics/SVG/1.1/DTD/svg11.dtd"><svg width="100%" height="100%" viewBox="0 0 1555 1610" version="1.1" xmlns="http://www.w3.org/2000/svg" xmlns:xlink="http://www.w3.org/1999/xlink" xml:space="preserve" xmlns:serif="http://www.serif.com/" style="fill-rule:evenodd;clip-rule:evenodd;stroke-linejoin:round;stroke-miterlimit:2;"><rect id="parking" x="0" y="0" width="1554.16" height="1609.97" style="fill:none;"/><path d="M329.873,1388.54c-11.878,-0 -21.975,-4.158 -30.289,-12.472c-8.315,-8.315 -12.472,-18.411 -12.472,-30.289l0,-1079.8c0,-13.066 4.157,-23.756 12.472,-32.07c8.314,-8.315 18.411,-12.472 30.289,-12.472l477.494,-0c92.649,-0 173.419,14.55 242.311,43.651c68.892,29.101 122.343,73.05 160.353,131.846c38.009,58.796 57.014,132.142 57.014,220.039c0,89.085 -19.005,162.432 -57.014,220.04c-38.01,57.608 -91.461,100.666 -160.353,129.173c-68.892,28.507 -149.662,42.761 -242.311,42.761l-265.472,-0l-0,336.831c-0,11.878 -3.861,21.974 -11.581,30.289c-7.721,8.314 -18.114,12.472 -31.18,12.472l-169.261,-0Zm208.458,-577.361l260.128,0c68.892,0 121.749,-16.332 158.571,-48.996c36.822,-32.665 55.233,-81.067 55.233,-145.209c-0,-59.389 -17.224,-107.198 -51.67,-143.426c-34.446,-36.228 -88.491,-54.342 -162.134,-54.342l-260.128,0l0,391.973Z" style="fill:#11142d;fill-rule:nonzero;"/></svg>