<?xml version="1.0" encoding="UTF-8" standalone="no"?><!DOCTYPE svg PUBLIC "-//W3C//DTD SVG 1.1//EN" "http://www.w3.org/Graphics/SVG/1.1/DTD/svg11.dtd"><svg width="100%" height="100%" viewBox="0 0 1555 1610" version="1.1" xmlns="http://www.w3.org/2000/svg" xmlns:xlink="http://www.w3.org/1999/xlink" xml:space="preserve" xmlns:serif="http://www.serif.com/" style="fill-rule:evenodd;clip-rule:evenodd;stroke-linejoin:round;stroke-miterlimit:2;"><rect id="Pets" x="0" y="0" width="1554.16" height="1609.97" style="fill:none;"/><g><path d="M470.986,110.715c104.561,-21.41 213.763,79.949 243.709,226.204c29.947,146.255 -30.631,282.377 -135.192,303.786c-104.561,21.409 -213.764,-79.95 -243.71,-226.204c-29.946,-146.255 30.632,-282.377 135.193,-303.786Z" style="fill:#11142d;"/><path d="M134.855,554.186c85.142,-31.621 190.176,39.395 234.406,158.489c44.23,119.093 11.014,241.454 -74.128,273.075c-85.143,31.621 -190.177,-39.396 -234.407,-158.489c-44.23,-119.093 -11.014,-241.454 74.129,-273.075Z" style="fill:#11142d;"/><path d="M1419.3,554.186c-85.142,-31.621 -190.176,39.395 -234.406,158.489c-44.23,119.093 -11.014,241.454 74.129,273.075c85.142,31.621 190.176,-39.396 234.406,-158.489c44.23,-119.093 11.014,-241.454 -74.129,-273.075Z" style="fill:#11142d;"/><path d="M1089.93,94.344c-104.561,-21.41 -213.764,79.949 -243.71,226.204c-29.946,146.255 30.632,282.377 135.193,303.786c104.561,21.409 213.763,-79.95 243.71,-226.204c29.946,-146.255 -30.632,-282.377 -135.193,-303.786Z" style="fill:#11142d;"/></g><path d="M777.08,1390.06c-88.775,155.023 -266.324,155.023 -355.099,77.511c-88.778,-77.511 -88.778,-232.534 -0,-387.557c62.143,-116.267 221.937,-232.534 355.099,-310.045c133.162,77.511 292.956,193.778 355.099,310.045c88.774,155.023 88.774,310.046 -0,387.557c-88.775,77.512 -266.325,77.512 -355.099,-77.511Z" style="fill:#11142d;"/></svg>