<?xml version="1.0" encoding="UTF-8" standalone="no"?><!DOCTYPE svg PUBLIC "-//W3C//DTD SVG 1.1//EN" "http://www.w3.org/Graphics/SVG/1.1/DTD/svg11.dtd"><svg width="100%" height="100%" viewBox="0 0 1555 1610" version="1.1" xmlns="http://www.w3.org/2000/svg" xmlns:xlink="http://www.w3.org/1999/xlink" xml:space="preserve" xmlns:serif="http://www.serif.com/" style="fill-rule:evenodd;clip-rule:evenodd;stroke-linejoin:round;stroke-miterlimit:2;"><rect id="Pets-allowed" serif:id="Pets allowed" x="0" y="0" width="1554.16" height="1609.97" style="fill:none;"/><g><circle cx="777.267" cy="825.453" r="755.762" style="fill:#4f94fb;"/><g><path d="M580.64,386.382c67.168,-13.752 137.317,51.358 156.554,145.309c19.236,93.951 -19.677,181.392 -86.845,195.145c-67.167,13.753 -137.317,-51.358 -156.553,-145.309c-19.237,-93.95 19.677,-181.392 86.844,-195.145Z" style="fill:#fff;"/><path d="M364.717,671.258c54.694,-20.313 122.165,25.307 150.578,101.81c28.412,76.502 7.075,155.104 -47.619,175.417c-54.693,20.312 -122.165,-25.307 -150.577,-101.81c-28.412,-76.503 -7.075,-155.104 47.618,-175.417Z" style="fill:#fff;"/><path d="M1189.82,671.258c-54.694,-20.313 -122.165,25.307 -150.577,101.81c-28.413,76.502 -7.076,155.104 47.618,175.417c54.694,20.312 122.165,-25.307 150.577,-101.81c28.413,-76.503 7.075,-155.104 -47.618,-175.417Z" style="fill:#fff;"/><path d="M978.234,375.866c-67.168,-13.753 -137.317,51.358 -156.554,145.308c-19.237,93.951 19.677,181.393 86.845,195.146c67.167,13.752 137.317,-51.358 156.553,-145.309c19.237,-93.951 -19.677,-181.392 -86.844,-195.145Z" style="fill:#fff;"/></g><path d="M777.268,1208.2c-57.027,99.583 -171.08,99.583 -228.107,49.792c-57.029,-49.792 -57.029,-149.375 -0,-248.958c39.919,-74.687 142.567,-149.374 228.107,-199.166c85.54,49.792 188.188,124.479 228.107,199.166c57.027,99.583 57.027,199.166 0,248.958c-57.027,49.791 -171.08,49.791 -228.107,-49.792Z" style="fill:#fff;"/></g></svg>