<?xml version="1.0" encoding="UTF-8" standalone="no"?><!DOCTYPE svg PUBLIC "-//W3C//DTD SVG 1.1//EN" "http://www.w3.org/Graphics/SVG/1.1/DTD/svg11.dtd"><svg width="100%" height="100%" viewBox="0 0 935 1234" version="1.1" xmlns="http://www.w3.org/2000/svg" xmlns:xlink="http://www.w3.org/1999/xlink" xml:space="preserve" xmlns:serif="http://www.serif.com/" style="fill-rule:evenodd;clip-rule:evenodd;stroke-linejoin:round;stroke-miterlimit:2;"><rect id="private" x="0" y="0" width="934.451" height="1233.01" style="fill:none;"/><path d="M145.562,504.086l0,-219.141c0,-0 76.813,-239.474 329.841,-225.919c253.029,13.555 303.861,220.271 303.861,220.271l5.648,231.566c-0,0 90.367,133.292 88.108,277.88c-1.475,94.362 -76.821,367.194 -422.468,370.506c-266.577,2.555 -399.126,-244.503 -388.58,-381.802c8.437,-109.837 83.59,-273.361 83.59,-273.361Zm253.451,306.637l0,142.491c0,-0 9.091,40.716 62.007,43.183c52.916,2.468 70.189,-35.78 70.189,-35.78l0,-146.825c0,0 59.534,-61.723 54.288,-109.809c-7.403,-67.86 -60.108,-95.221 -118.272,-95.113c-58.164,0.109 -118.621,26.019 -122.322,103.75c-1.835,38.521 54.11,98.103 54.11,98.103Zm-135.371,-349.562l394.755,0l-4.518,-131.032c-0,-0 -45.726,-158.143 -186.654,-158.143c-140.928,-0 -202.92,158.143 -202.92,158.143l-0.663,131.032Z" style="fill:#11142d;fill-opacity:0.69;"/></svg>