<?xml version="1.0" encoding="UTF-8" standalone="no"?><!DOCTYPE svg PUBLIC "-//W3C//DTD SVG 1.1//EN" "http://www.w3.org/Graphics/SVG/1.1/DTD/svg11.dtd"><svg width="100%" height="100%" viewBox="0 0 2250 2250" version="1.1" xmlns="http://www.w3.org/2000/svg" xmlns:xlink="http://www.w3.org/1999/xlink" xml:space="preserve" xmlns:serif="http://www.serif.com/" style="fill-rule:evenodd;clip-rule:evenodd;stroke-linejoin:round;stroke-miterlimit:2;"><rect id="Version-2" serif:id="Version 2" x="0" y="0" width="2250" height="2250" style="fill:none;"/><path d="M2170.86,366.6c-0,-158.655 -128.808,-287.463 -287.463,-287.463l-1516.8,0c-158.655,0 -287.463,128.808 -287.463,287.463l0,1516.8c0,158.655 128.808,287.463 287.463,287.463l1516.8,-0c158.655,-0 287.463,-128.808 287.463,-287.463l-0,-1516.8Z" style="fill:#5096fe;"/><path d="M619.608,593.818c-30.794,-0 -55.795,25 -55.795,55.794l0,355.323c0,30.794 25.001,55.795 55.795,55.795l1028.98,-0c30.793,-0 55.794,-25.001 55.794,-55.795l-0,-355.323c-0,-30.794 -25.001,-55.794 -55.794,-55.794l-1028.98,-0Z" style="fill:#fff;"/><path d="M1178.63,559.684c0,-46.381 -37.655,-84.037 -84.036,-84.037l-535.18,0c-46.381,0 -84.037,37.656 -84.037,84.037l0,1149.36c0,46.381 37.656,84.037 84.037,84.037l535.18,-0c46.381,-0 84.036,-37.656 84.036,-84.037l0,-1149.36Z" style="fill:#5096fe;"/><path d="M1060.46,609.789c-0,-30.793 -25.001,-55.794 -55.795,-55.794l-355.323,0c-30.794,0 -55.794,25.001 -55.794,55.794l-0,1028.98c-0,30.794 25,55.795 55.794,55.795l355.323,-0c30.794,-0 55.795,-25.001 55.795,-55.795l-0,-1028.98Z" style="fill:#fff;"/></svg>