<?xml version="1.0" encoding="UTF-8" standalone="no"?><!DOCTYPE svg PUBLIC "-//W3C//DTD SVG 1.1//EN" "http://www.w3.org/Graphics/SVG/1.1/DTD/svg11.dtd"><svg width="100%" height="100%" viewBox="0 0 2250 2250" version="1.1" xmlns="http://www.w3.org/2000/svg" xmlns:xlink="http://www.w3.org/1999/xlink" xml:space="preserve" xmlns:serif="http://www.serif.com/" style="fill-rule:evenodd;clip-rule:evenodd;stroke-linejoin:round;stroke-miterlimit:2;"><rect id="Search-Icon" serif:id="Search Icon" x="0" y="0" width="2250" height="2250" style="fill:none;"/><path id="Search" d="M1425.35,1574.13c-128.4,100.716 -287.559,160.319 -459.927,160.319c-425.849,0 -771.076,-363.815 -771.076,-812.603c-0,-448.788 345.227,-812.603 771.076,-812.603c425.858,0 771.085,363.815 771.085,812.603c0,193.919 -64.455,371.972 -172.025,511.665l482.867,535.708c36.66,40.673 35.09,104.965 -3.505,143.602c-38.596,38.635 -99.595,36.984 -136.264,-3.69l-482.231,-535.001Zm-459.927,-42.832c-319.384,0 -578.305,-272.861 -578.305,-609.452c0,-336.591 258.921,-609.452 578.305,-609.452c319.393,0 578.314,272.861 578.314,609.452c-0,336.591 -258.921,609.452 -578.314,609.452Z" style="fill:none;stroke:#fff;stroke-width:185.59px;"/><path d="M1425.35,1574.13c-128.4,100.716 -287.559,160.319 -459.927,160.319c-425.849,0 -771.076,-363.815 -771.076,-812.603c-0,-448.788 345.227,-812.603 771.076,-812.603c425.858,0 771.085,363.815 771.085,812.603c0,193.919 -64.455,371.972 -172.025,511.665l482.867,535.708c36.66,40.673 35.09,104.965 -3.505,143.602c-38.596,38.635 -99.595,36.984 -136.264,-3.69l-482.231,-535.001Zm-459.927,-42.832c-319.384,0 -578.305,-272.861 -578.305,-609.452c0,-336.591 258.921,-609.452 578.305,-609.452c319.393,0 578.314,272.861 578.314,609.452c-0,336.591 -258.921,609.452 -578.314,609.452Z" style="fill:#fff;"/></svg>