<?xml version="1.0" encoding="UTF-8" standalone="no"?><!DOCTYPE svg PUBLIC "-//W3C//DTD SVG 1.1//EN" "http://www.w3.org/Graphics/SVG/1.1/DTD/svg11.dtd"><svg width="100%" height="100%" viewBox="0 0 2250 2250" version="1.1" xmlns="http://www.w3.org/2000/svg" xmlns:xlink="http://www.w3.org/1999/xlink" xml:space="preserve" xmlns:serif="http://www.serif.com/" style="fill-rule:evenodd;clip-rule:evenodd;stroke-linejoin:round;stroke-miterlimit:2;"><rect id="YouTube" x="0" y="0" width="2250" height="2250" style="fill:none;"/><path d="M2224.12,894.108c-0,-158.228 -25.991,-369.917 -134.738,-468.543c-95.672,-86.767 -264.966,-70.363 -404.168,-70.363l-1120.43,-0c-133.075,-0 -293.448,-20.957 -387.505,59.105c-116.165,98.881 -151.401,315.446 -151.401,479.801l0,462.109c0,169.374 16.71,374.5 139.063,473.325c92.506,74.717 271.787,65.581 399.843,65.581l1120.43,0c120.867,0 286.392,17.87 376.329,-49.434c131.38,-98.317 162.577,-312.909 162.577,-489.472l-0,-462.109Zm-1323.25,-186.4l-1.262,832.123l634.039,-414.714l-632.777,-417.409Z" style="fill:#11142d;"/></svg>